<svg width="180" height="180" viewBox="0 0 180 180" fill="none" xmlns="http://www.w3.org/2000/svg">
<path fill-rule="evenodd" clip-rule="evenodd" d="M127.001 112.101C127.786 109.992 126.227 107.748 123.977 107.748H40.9896C38.4435 107.748 36.1656 109.331 35.2774 111.717L31.7056 121.312C30.9208 123.42 32.48 125.664 34.7297 125.664H117.717C120.263 125.664 122.541 124.082 123.429 121.696L127.001 112.101ZM136.898 85.1213C137.683 83.013 136.123 80.7687 133.874 80.7687H50.8862C48.3401 80.7687 46.0623 82.3513 45.174 84.7374L41.6023 94.3322C40.8174 96.4405 42.3767 98.6848 44.6264 98.6848H127.614C130.16 98.6848 132.438 97.1022 133.326 94.7161L136.898 85.1213ZM143.223 67.9473C142.334 70.3335 140.057 71.9161 137.51 71.9161H54.523C52.2733 71.9161 50.7141 69.6718 51.4989 67.5635L55.0707 57.9687C55.9589 55.5826 58.2368 54 60.7829 54H143.77C146.02 54 147.579 56.2442 146.794 58.3526L143.223 67.9473Z" fill="white"/>
</svg>
